<?xml version="1.0" encoding="UTF-8"?>
<svg xmlns="http://www.w3.org/2000/svg" version="1.1" viewBox="0 0 500 500">
  <defs>
    <style>
      .cls-1 {
      }

      .cls-2 {
        fill: #0139ff;
      }
    </style>
  </defs>
  <!-- Generator: Adobe Illustrator 28.7.1, SVG Export Plug-In . SVG Version: 1.2.0 Build 142)  -->
  <g>
    <g id="Calque_1">
      <path class="cls-2" d="M343.1,246.6l5.2-9.1,5.2-9.1,5.2-9.1,5.2-9.1,5.2-9.1,5.2,9.1h20.9l-5.2-9.1-5.2-9.1-5.2-9.1-5.2-9.1-5.2-9.1-5.2,9.1-5.2,9.1-5.2,9.1-5.2,9.1-5.2,9.1-5.2,9.1-5.2,9.1-5.2,9.1-5.2,9.1h20.9-.2Z"/>
      <path class="cls-1" d="M426.8,264.7l-5.2-9.1-10.5-18.1-5.2-9.1h-31.4l-5.2,9.1,5.2,9.1h20.9l5.2,9.1,5.2,9.1h-94.2l-10.5,18.1h125.6l5.2-9.1-5.2-9.1h.1Z"/>
      <path class="cls-1" d="M334.6,165h-81.7l-6.8,11.8-6.8,11.8-6.8,11.8-6.8,11.8h27.2l6.8-11.8,6.8-11.8h81.7l13.6-23.6h-27.2,0Z"/>
      <path class="cls-2" d="M307.3,212.1h-27.2l-6.8,11.8-6.8,11.8h27.2l-6.8,11.8-6.8,11.8h-54.4l6.8-11.8,6.8-11.8h-27.2l-13.6,23.6-6.8,11.8-6.8,11.8h108.9l6.8-11.8,6.8-11.8,6.8-11.8,6.8-11.8,6.8-11.8,6.8-11.8h-27.3Z"/>
      <path class="cls-1" d="M231.8,165h-40.8l-6.8,11.8-6.8,11.8h27.2l-6.8,11.8-6.8,11.8h-27.2l-6.8,11.8-6.8,11.8h54.5l6.8-11.8,6.8-11.8,6.8-11.8,6.8-11.8,6.8-11.8,6.8-11.8h-13.7Z"/>
      <path class="cls-2" d="M176.7,176.8l6.8-11.8h-27.2l-6.8,11.8-6.8,11.8-13.6,23.6-6.8,11.8-13.6,23.6-6.8,11.8-13.6,23.6h27.2l6.8-11.8,6.8-11.8,6.8-11.8,6.8-11.8,6.8-11.8,6.8-11.8,6.8-11.8,6.8-11.8,6.8-11.8h0Z"/>
      <g>
        <polygon class="cls-1" points="112.9 308.5 108.7 292.8 99.2 292.8 107.8 321.4 116.4 321.4 119.5 310.1 115.8 296.5 112.9 308.5"/>
        <polygon class="cls-1" points="116.1 292.8 124 321.4 133 321.4 125.7 292.8 116.1 292.8"/>
        <polygon class="cls-1" points="133.2 292.7 130.2 304.6 134.1 319.9 141.9 292.8 133.2 292.8 133.2 292.7"/>
        <polygon class="cls-1" points="154.9 298.4 154.9 298.5 160.8 298.5 160.8 301.2 169.8 301.2 169.8 292.9 154.9 292.9 154.9 298.4"/>
        <polygon class="cls-1" points="162.5 304.2 153.4 304.2 153.4 292.9 143.9 292.9 143.9 321.5 153.4 321.5 153.4 309.7 162.5 309.7 162.5 304.2"/>
        <polygon class="cls-1" points="160.3 315.7 154.9 315.7 154.9 321.4 169.8 321.4 169.8 312.8 160.3 312.8 160.3 315.7"/>
        <polygon class="cls-1" points="185.3 292.8 185.3 298.5 192.4 298.5 192.4 304.6 185.3 304.6 185.3 309.6 192.4 309.6 192.4 315.7 185.3 315.7 185.3 321.4 196.4 321.4 202.1 315.7 202.1 310.1 199.2 307.2 202.1 304.3 202.1 298.5 196.4 292.8 185.3 292.8"/>
        <rect class="cls-1" x="174.3" y="292.8" width="9.5" height="28.6"/>
        <polygon class="cls-1" points="217.4 298.5 217.4 315.7 223.2 321.4 227 321.4 227 321.4 227 292.8 223.2 292.8 217.4 298.5"/>
        <polygon class="cls-1" points="234.8 315.7 228.5 315.7 228.5 321.4 238.6 321.4 244.3 315.7 244.3 311.5 234.8 311.5 234.8 315.7"/>
        <polygon class="cls-1" points="228.5 292.8 228.5 298.5 234.8 298.5 234.8 304.3 244.3 304.3 244.3 298.5 238.6 292.8 228.5 292.8"/>
        <polygon class="cls-1" points="263 292.8 263 298.6 266.6 298.6 266.6 298.6 266.6 315.6 263 315.6 263 321.4 270.4 321.4 276.2 315.7 276.2 298.5 270.4 292.8 263 292.8"/>
        <polygon class="cls-1" points="248.3 298.5 248.3 315.7 254.1 321.4 261.4 321.4 261.4 315.6 257.8 315.6 257.8 315.6 257.8 298.6 261.4 298.6 261.4 292.8 254.1 292.8 248.3 298.5"/>
        <rect class="cls-1" x="280.5" y="292.8" width="9.5" height="28.6"/>
        <polygon class="cls-1" points="323.3 292.8 323.3 298.5 330.2 298.5 330.2 308.3 323.3 308.3 323.3 314 334 314 339.7 308.3 339.7 298.5 334 292.8 323.3 292.8"/>
        <rect class="cls-1" x="312.5" y="292.8" width="9.4" height="28.6"/>
        <polygon class="cls-1" points="357.9 292.8 357.9 298.6 361.5 298.6 361.5 298.6 361.5 315.6 357.9 315.6 357.9 321.4 365.3 321.4 371.1 315.7 371.1 298.5 365.3 292.8 357.9 292.8"/>
        <polygon class="cls-1" points="343.3 298.5 343.3 315.7 349.1 321.4 356.4 321.4 356.4 315.6 352.8 315.6 352.8 315.6 352.8 298.6 356.4 298.6 356.4 292.8 349.1 292.8 343.3 298.5"/>
        <rect class="cls-1" x="376.1" y="314.8" width="9.5" height="6.7"/>
        <polygon class="cls-1" points="303.8 311.5 303.8 311.5 308.2 307.1 308.2 298.5 302.4 292.8 291.5 292.8 291.5 298.5 291.6 298.6 298.7 298.6 298.7 307.4 291.6 307.4 291.6 312.9 294.8 312.9 295.3 313.9 295.3 313.9 295.3 313.9 298.9 321.4 309.1 321.4 303.7 311.6 303.8 311.5"/>
      </g>
    </g>
  </g>
</svg>